<svg width="767" height="202" viewBox="0 0 767 202" fill="none" xmlns="http://www.w3.org/2000/svg">
<path d="M7.776 0H90.72C118.752 0 141.792 7.008 159.84 21.024C178.08 34.848 187.2 54.24 187.2 79.2V122.112C187.2 148.224 178.368 168 160.704 181.44C143.04 194.88 119.808 201.6 91.008 201.6H7.776C5.664 201.6 3.84 200.832 2.304 199.296C0.768001 197.76 0 195.936 0 193.824V7.776C0 5.66401 0.768001 3.84001 2.304 2.30401C3.84 0.768005 5.664 0 7.776 0ZM72 56.16V145.44H90.72C97.248 145.44 102.432 143.52 106.272 139.68C110.304 135.648 112.32 129.792 112.32 122.112V79.2C112.32 63.84 105.12 56.16 90.72 56.16H72Z" fill="url(#paint0_linear_4905_233)" fill-opacity="0.7"/>
<path d="M287.932 145.44H376.637C378.749 145.44 380.573 146.208 382.109 147.744C383.645 149.28 384.413 151.104 384.413 153.216V193.824C384.413 195.936 383.645 197.76 382.109 199.296C380.573 200.832 378.749 201.6 376.637 201.6H226.589C224.476 201.6 222.652 200.832 221.117 199.296C219.581 197.76 218.812 195.936 218.812 193.824V7.776C218.812 5.66401 219.581 3.84001 221.117 2.30401C222.652 0.768005 224.476 0 226.589 0H374.332C376.444 0 378.269 0.768005 379.805 2.30401C381.341 3.84001 382.109 5.66401 382.109 7.776V48.384C382.109 50.496 381.341 52.32 379.805 53.856C378.269 55.392 376.444 56.16 374.332 56.16H287.932V74.304H367.996C370.108 74.304 371.933 75.072 373.469 76.608C375.004 78.144 375.772 79.968 375.772 82.08V119.52C375.772 121.632 375.004 123.456 373.469 124.992C371.933 126.528 370.108 127.296 367.996 127.296H287.932V145.44Z" fill="url(#paint1_linear_4905_233)" fill-opacity="0.7"/>
<path d="M492.215 142.56H571.99C574.102 142.56 575.927 143.328 577.463 144.864C578.999 146.4 579.766 148.224 579.766 150.336V193.824C579.766 195.936 578.999 197.76 577.463 199.296C575.927 200.832 574.102 201.6 571.99 201.6H426.839C424.726 201.6 422.902 200.832 421.366 199.296C419.83 197.76 419.062 195.936 419.062 193.824V7.776C419.062 5.66401 419.83 3.84001 421.366 2.30401C422.902 0.768005 424.726 0 426.839 0H484.439C486.551 0 488.374 0.768005 489.91 2.30401C491.446 3.84001 492.215 5.66401 492.215 7.776V142.56Z" fill="url(#paint2_linear_4905_233)" fill-opacity="0.7"/>
<path d="M678.964 142.56H758.74C760.852 142.56 762.677 143.328 764.213 144.864C765.749 146.4 766.516 148.224 766.516 150.336V193.824C766.516 195.936 765.749 197.76 764.213 199.296C762.677 200.832 760.852 201.6 758.74 201.6H613.589C611.476 201.6 609.652 200.832 608.116 199.296C606.58 197.76 605.812 195.936 605.812 193.824V7.776C605.812 5.66401 606.58 3.84001 608.116 2.30401C609.652 0.768005 611.476 0 613.589 0H671.188C673.3 0 675.125 0.768005 676.661 2.30401C678.197 3.84001 678.964 5.66401 678.964 7.776V142.56Z" fill="url(#paint3_linear_4905_233)" fill-opacity="0.7"/>
<defs>
<linearGradient id="paint0_linear_4905_233" x1="378.356" y1="11.8247" x2="378.356" y2="201.6" gradientUnits="userSpaceOnUse">
<stop stop-color="white" stop-opacity="0.979167"/>
<stop offset="1" stop-color="#F2F2F2"/>
</linearGradient>
<linearGradient id="paint1_linear_4905_233" x1="378.356" y1="11.8247" x2="378.356" y2="201.6" gradientUnits="userSpaceOnUse">
<stop stop-color="white" stop-opacity="0.979167"/>
<stop offset="1" stop-color="#F2F2F2"/>
</linearGradient>
<linearGradient id="paint2_linear_4905_233" x1="378.356" y1="11.8247" x2="378.356" y2="201.6" gradientUnits="userSpaceOnUse">
<stop stop-color="white" stop-opacity="0.979167"/>
<stop offset="1" stop-color="#F2F2F2"/>
</linearGradient>
<linearGradient id="paint3_linear_4905_233" x1="378.356" y1="11.8247" x2="378.356" y2="201.6" gradientUnits="userSpaceOnUse">
<stop stop-color="white" stop-opacity="0.979167"/>
<stop offset="1" stop-color="#F2F2F2"/>
</linearGradient>
</defs>
</svg>
