<svg width="34" height="34" viewBox="0 0 34 34" fill="none" xmlns="http://www.w3.org/2000/svg">
<path d="M26 9.74001C25.91 9.72501 25.805 9.72501 25.715 9.74001C23.645 9.66501 21.995 7.97 21.995 5.87C21.995 3.725 23.72 2 25.865 2C28.01 2 29.735 3.74 29.735 5.87C29.72 7.97 28.07 9.66501 26 9.74001Z" stroke="white" stroke-width="3" stroke-linecap="round" stroke-linejoin="round"/>
<path d="M24.455 20.66C26.51 21.005 28.775 20.645 30.365 19.58C32.48 18.17 32.48 15.86 30.365 14.45C28.76 13.385 26.465 13.025 24.41 13.385" stroke="white" stroke-width="3" stroke-linecap="round" stroke-linejoin="round"/>
<path d="M7.955 9.74001C8.045 9.72501 8.15 9.72501 8.24 9.74001C10.31 9.66501 11.96 7.97 11.96 5.87C11.96 3.725 10.235 2 8.09 2C5.945 2 4.22 3.74 4.22 5.87C4.235 7.97 5.885 9.66501 7.955 9.74001Z" stroke="white" stroke-width="3" stroke-linecap="round" stroke-linejoin="round"/>
<path d="M9.5 20.66C7.445 21.005 5.18 20.645 3.59 19.58C1.475 18.17 1.475 15.86 3.59 14.45C5.195 13.385 7.49 13.025 9.545 13.385" stroke="white" stroke-width="3" stroke-linecap="round" stroke-linejoin="round"/>
<path d="M17 20.945C16.91 20.93 16.805 20.93 16.715 20.945C14.645 20.87 12.995 19.175 12.995 17.075C12.995 14.93 14.72 13.205 16.865 13.205C19.01 13.205 20.735 14.945 20.735 17.075C20.72 19.175 19.07 20.885 17 20.945Z" stroke="white" stroke-width="3" stroke-linecap="round" stroke-linejoin="round"/>
<path d="M12.635 25.6699C10.52 27.0799 10.52 29.3899 12.635 30.7999C15.035 32.4049 18.965 32.4049 21.365 30.7999C23.48 29.3899 23.48 27.0799 21.365 25.6699C18.98 24.0799 15.035 24.0799 12.635 25.6699Z" stroke="white" stroke-width="3" stroke-linecap="round" stroke-linejoin="round"/>
</svg>
