<svg width="38" height="38" viewBox="0 0 38 38" fill="none" xmlns="http://www.w3.org/2000/svg">
<path fill-rule="evenodd" clip-rule="evenodd" d="M18.856 34.712C27.6131 34.712 34.712 27.6131 34.712 18.856C34.712 10.099 27.6131 3 18.856 3C10.099 3 3 10.099 3 18.856C3 27.6131 10.099 34.712 18.856 34.712ZM18.856 37.712C29.2699 37.712 37.712 29.2699 37.712 18.856C37.712 8.44213 29.2699 0 18.856 0C8.44213 0 0 8.44213 0 18.856C0 29.2699 8.44213 37.712 18.856 37.712Z" fill="#292D32"/>
<path d="M22.9521 19.9545L23.4407 16.5678H20.3841V14.3709C20.3841 13.4444 20.8112 12.5403 22.1802 12.5403H23.5699V9.65694C23.5699 9.65694 22.3087 9.4281 21.1029 9.4281C18.5855 9.4281 16.9401 11.0501 16.9401 13.9865V16.5678H14.1418V19.9545H16.9401V28.1418C18.0812 28.3316 19.2431 28.3316 20.3841 28.1418V19.9545H22.9521Z" fill="#292D32"/>
</svg>
