<svg width="38" height="38" viewBox="0 0 38 38" fill="none" xmlns="http://www.w3.org/2000/svg">
<path fill-rule="evenodd" clip-rule="evenodd" d="M6.61852 29.0151L6.40988 30.2387C6.32767 30.7209 6.11371 31.5018 5.86454 32.3414C5.94164 32.3174 6.01768 32.2938 6.09254 32.2705C6.70721 32.0796 7.24254 31.9133 7.63404 31.7883L8.99396 31.3544L10.1885 32.1359C12.6781 33.7648 15.6519 34.712 18.856 34.712C27.6131 34.712 34.712 27.6131 34.712 18.856C34.712 10.099 27.6131 3 18.856 3C10.099 3 3 10.099 3 18.856C3 22.2669 4.0736 25.4182 5.90157 28.0018L6.61852 29.0151ZM4.78259 35.8231C3.50318 36.2273 2.21201 36.6469 1.28119 36.9868C1.45587 36.3953 1.72795 35.5336 2.02172 34.6032C2.14192 34.2225 2.26575 33.8304 2.38803 33.4405C2.88292 31.8625 3.35236 30.3222 3.45256 29.7345C1.27787 26.6608 0 22.9077 0 18.856C0 8.44213 8.44213 0 18.856 0C29.2699 0 37.712 8.44213 37.712 18.856C37.712 29.2699 29.2699 37.712 18.856 37.712C15.0509 37.712 11.509 36.5849 8.546 34.6464C8.11021 34.7854 7.53721 34.9634 6.89325 35.1635C6.2397 35.3666 5.51306 35.5923 4.78259 35.8231Z" fill="#292D32"/>
<path d="M28.2839 24.824C28.2839 25.1635 28.2083 25.5123 28.0478 25.8517C27.8873 26.1911 27.6796 26.5117 27.4058 26.8134C26.9431 27.3225 26.4332 27.6902 25.8572 27.9259C25.2907 28.1616 24.677 28.2841 24.016 28.2841C23.0529 28.2841 22.0237 28.0579 20.9379 27.5959C19.852 27.1339 18.7662 26.5117 17.6898 25.7291C16.6039 24.9372 15.5747 24.0604 14.5927 23.0893C13.6202 22.1088 12.7421 21.0811 11.9584 20.0063C11.1841 18.9315 10.5609 17.8567 10.1077 16.7914C9.65447 15.7166 9.42786 14.6889 9.42786 13.7084C9.42786 13.0673 9.54116 12.4545 9.76777 11.8888C9.99439 11.3137 10.3532 10.7857 10.8536 10.3143C11.4579 9.72037 12.1189 9.4281 12.8176 9.4281C13.082 9.4281 13.3464 9.48467 13.5824 9.5978C13.8279 9.71094 14.0451 9.88065 14.215 10.1258L16.4056 13.2087C16.5756 13.4444 16.6983 13.6613 16.7833 13.8687C16.8683 14.0667 16.9155 14.2647 16.9155 14.4438C16.9155 14.6701 16.8494 14.8963 16.7172 15.1132C16.5945 15.33 16.4151 15.5563 16.1885 15.7826L15.4708 16.5274C15.367 16.6311 15.3198 16.7537 15.3198 16.9045C15.3198 16.9799 15.3292 17.0459 15.3481 17.1214C15.3764 17.1968 15.4048 17.2534 15.4236 17.3099C15.5936 17.621 15.8863 18.0264 16.3018 18.5167C16.7267 19.007 17.1799 19.5066 17.6709 20.0063C18.1808 20.506 18.6717 20.968 19.1722 21.3922C19.6632 21.8071 20.0692 22.0899 20.3902 22.2596C20.4374 22.2785 20.4941 22.3068 20.5602 22.335C20.6357 22.3633 20.7113 22.3728 20.7962 22.3728C20.9568 22.3728 21.0795 22.3162 21.1834 22.2125L21.901 21.5054C22.137 21.2697 22.3636 21.0906 22.5808 20.9774C22.798 20.8454 23.0151 20.7794 23.2512 20.7794C23.4306 20.7794 23.6194 20.8171 23.8272 20.902C24.0349 20.9868 24.2521 21.1094 24.4881 21.2697L27.6135 23.4853C27.859 23.655 28.0289 23.853 28.1328 24.0887C28.2272 24.3244 28.2839 24.5601 28.2839 24.824Z" fill="#292D32"/>
</svg>
