<svg width="15" height="15" viewBox="0 0 15 15" fill="none" xmlns="http://www.w3.org/2000/svg">
<path fill-rule="evenodd" clip-rule="evenodd" d="M13.8337 13.8942C13.5408 14.1871 13.0659 14.1871 12.773 13.8942L1.10575 2.22697C0.81286 1.93408 0.81286 1.4592 1.10575 1.16631C1.39865 0.873415 1.87352 0.873416 2.16641 1.16631L13.8337 12.8336C14.1266 13.1265 14.1266 13.6013 13.8337 13.8942Z" fill="#292D32"/>
<path fill-rule="evenodd" clip-rule="evenodd" d="M1.10565 13.8338C0.812754 13.5409 0.812754 13.066 1.10565 12.7731L12.7729 1.10588C13.0658 0.812982 13.5407 0.812982 13.8336 1.10588C14.1265 1.39877 14.1265 1.87364 13.8336 2.16654L2.16631 13.8338C1.87341 14.1267 1.39854 14.1267 1.10565 13.8338Z" fill="#292D32"/>
</svg>
