<svg width="24" height="24" viewBox="0 0 24 24" fill="none" xmlns="http://www.w3.org/2000/svg">
<g clip-path="url(#clip0_4905_267)">
<path d="M12 6C11.2044 6 10.4413 6.31607 9.87868 6.87868C9.31607 7.44129 9 8.20435 9 9V21C9 21.7956 9.31607 22.5587 9.87868 23.1213C10.4413 23.6839 11.2044 24 12 24C12.7956 24 13.5587 23.6839 14.1213 23.1213C14.6839 22.5587 15 21.7956 15 21V9C15 8.20435 14.6839 7.44129 14.1213 6.87868C13.5587 6.31607 12.7956 6 12 6ZM13 21C13 21.2652 12.8946 21.5196 12.7071 21.7071C12.5196 21.8946 12.2652 22 12 22C11.7348 22 11.4804 21.8946 11.2929 21.7071C11.1054 21.5196 11 21.2652 11 21V9C11 8.73478 11.1054 8.48043 11.2929 8.29289C11.4804 8.10536 11.7348 8 12 8C12.2652 8 12.5196 8.10536 12.7071 8.29289C12.8946 8.48043 13 8.73478 13 9V21Z" fill="#292D32"/>
<path fill-rule="evenodd" clip-rule="evenodd" d="M12 6.2C11.2574 6.2 10.5452 6.495 10.0201 7.0201C9.495 7.5452 9.2 8.25739 9.2 9V21C9.2 21.7426 9.495 22.4548 10.0201 22.9799C10.5452 23.505 11.2574 23.8 12 23.8C12.7426 23.8 13.4548 23.505 13.9799 22.9799C14.505 22.4548 14.8 21.7426 14.8 21V9C14.8 8.25739 14.505 7.5452 13.9799 7.0201C13.4548 6.495 12.7426 6.2 12 6.2ZM13.2 21C13.2 21.3183 13.0736 21.6235 12.8485 21.8485C12.6235 22.0736 12.3183 22.2 12 22.2C11.6817 22.2 11.3765 22.0736 11.1515 21.8485C10.9264 21.6235 10.8 21.3183 10.8 21V9C10.8 8.68174 10.9264 8.37652 11.1515 8.15147C11.3765 7.92643 11.6817 7.8 12 7.8C12.3183 7.8 12.6235 7.92643 12.8485 8.15147C13.0736 8.37652 13.2 8.68174 13.2 9V21ZM9.87868 6.87868C10.4413 6.31607 11.2044 6 12 6C12.7956 6 13.5587 6.31607 14.1213 6.87868C14.6839 7.44129 15 8.20435 15 9V21C15 21.7956 14.6839 22.5587 14.1213 23.1213C13.5587 23.6839 12.7956 24 12 24C11.2044 24 10.4413 23.6839 9.87868 23.1213C9.31607 22.5587 9 21.7956 9 21V9C9 8.20435 9.31607 7.44129 9.87868 6.87868ZM12.7071 21.7071C12.8946 21.5196 13 21.2652 13 21V9C13 8.73478 12.8946 8.48043 12.7071 8.29289C12.5196 8.10536 12.2652 8 12 8C11.7348 8 11.4804 8.10536 11.2929 8.29289C11.1054 8.48043 11 8.73478 11 9V21C11 21.2652 11.1054 21.5196 11.2929 21.7071C11.4804 21.8946 11.7348 22 12 22C12.2652 22 12.5196 21.8946 12.7071 21.7071Z" fill="#FAFAFA"/>
<path d="M21 0C20.2044 0 19.4413 0.31607 18.8787 0.87868C18.3161 1.44129 18 2.20435 18 3V21C18 21.7956 18.3161 22.5587 18.8787 23.1213C19.4413 23.6839 20.2044 24 21 24C21.7956 24 22.5587 23.6839 23.1213 23.1213C23.6839 22.5587 24 21.7956 24 21V3C24 2.20435 23.6839 1.44129 23.1213 0.87868C22.5587 0.31607 21.7956 0 21 0V0ZM22 21C22 21.2652 21.8946 21.5196 21.7071 21.7071C21.5196 21.8946 21.2652 22 21 22C20.7348 22 20.4804 21.8946 20.2929 21.7071C20.1054 21.5196 20 21.2652 20 21V3C20 2.73478 20.1054 2.48043 20.2929 2.29289C20.4804 2.10536 20.7348 2 21 2C21.2652 2 21.5196 2.10536 21.7071 2.29289C21.8946 2.48043 22 2.73478 22 3V21Z" fill="#292D32"/>
<path fill-rule="evenodd" clip-rule="evenodd" d="M20.8 0.00666843C20.0774 0.0549207 19.394 0.363398 18.8787 0.87868C18.3161 1.44129 18 2.20435 18 3V21C18 21.7956 18.3161 22.5587 18.8787 23.1213C19.4413 23.6839 20.2044 24 21 24C21.7956 24 22.5587 23.6839 23.1213 23.1213C23.6839 22.5587 24 21.7956 24 21V3C24 2.20435 23.6839 1.44129 23.1213 0.87868C22.5587 0.31607 21.7956 0 21 0C20.9331 0 20.8664 0.00223661 20.8 0.00666843ZM21 0.2C20.2574 0.2 19.5452 0.494999 19.0201 1.0201C18.495 1.5452 18.2 2.25739 18.2 3V21C18.2 21.7426 18.495 22.4548 19.0201 22.9799C19.5452 23.505 20.2574 23.8 21 23.8C21.7426 23.8 22.4548 23.505 22.9799 22.9799C23.505 22.4548 23.8 21.7426 23.8 21V3C23.8 2.25739 23.505 1.5452 22.9799 1.0201C22.4548 0.494999 21.7426 0.2 21 0.2ZM22.2 21C22.2 21.3183 22.0736 21.6235 21.8485 21.8485C21.6235 22.0736 21.3183 22.2 21 22.2C20.6817 22.2 20.3765 22.0736 20.1515 21.8485C19.9264 21.6235 19.8 21.3183 19.8 21V3C19.8 2.68174 19.9264 2.37652 20.1515 2.15147C20.3765 1.92643 20.6817 1.8 21 1.8C21.3183 1.8 21.6235 1.92643 21.8485 2.15147C22.0736 2.37652 22.2 2.68174 22.2 3V21ZM21.7071 21.7071C21.8946 21.5196 22 21.2652 22 21V3C22 2.73478 21.8946 2.48043 21.7071 2.29289C21.5196 2.10536 21.2652 2 21 2C20.7348 2 20.4804 2.10536 20.2929 2.29289C20.1054 2.48043 20 2.73478 20 3V21C20 21.2652 20.1054 21.5196 20.2929 21.7071C20.4804 21.8946 20.7348 22 21 22C21.2652 22 21.5196 21.8946 21.7071 21.7071Z" fill="#FAFAFA"/>
<path fill-rule="evenodd" clip-rule="evenodd" d="M4.5 21V15C4.5 14.1716 3.82843 13.5 3 13.5C2.17157 13.5 1.5 14.1716 1.5 15V21C1.5 21.8284 2.17157 22.5 3 22.5C3.82843 22.5 4.5 21.8284 4.5 21ZM3 12C1.34315 12 0 13.3431 0 15V21C0 22.6569 1.34315 24 3 24C4.65685 24 6 22.6569 6 21V15C6 13.3431 4.65685 12 3 12Z" fill="#292D32"/>
</g>
<defs>
<clipPath id="clip0_4905_267">
<rect width="24" height="24" fill="white"/>
</clipPath>
</defs>
</svg>
