<?xml version="1.0" encoding="UTF-8"?>
<svg id="_Слой_1" data-name="Слой 1" xmlns="http://www.w3.org/2000/svg" viewBox="0 0 1461.19 1462.3">
  <defs>
    <style>
      .cls-1 {
        fill: #027cb7;
      }
    </style>
  </defs>
  <path class="cls-1" d="m746.34,1460.97c-114.16,8.66-260.2-24.77-393.34-107.04-179.39-110.85-293.78-270.38-336.7-476.88-40.19-193.37-6.07-376.38,102.55-541.39C235.45,158.53,399.55,47.26,609.94,11.24c196.35-33.61,378.18,8.39,540.61,122.96,169.03,119.22,271.98,283.37,302.01,488.07,30.42,207.37-19.6,396.28-149.81,562.29-128.45,163.78-321.27,259.61-556.41,276.4Zm-33.21-1385.93c-178,4.19-345.4,75.16-475.49,224.67C108.44,448.19,56.94,622.61,82.09,817.25c25.23,195.18,123.41,348.44,285.45,458.45,135.06,91.69,286.73,125.98,448.11,104.35,177.84-23.83,324.26-107.36,434.46-250.09,96.5-124.98,141.39-267.94,135.55-425.26-12.68-341.45-290.31-627.39-672.53-629.66Z"/>
  <path class="cls-1" d="m498.78,687.56c10.54-7.95,20.63-15.51,30.66-23.15,22.97-17.49,45.97-34.93,68.84-52.55,24.97-19.24,49.99-38.42,74.62-58.08,10.71-8.55,15.29,2.59,20.99,6.46,12.17,8.26,23.07,18.4,34.26,28.05.9.78.75,4.73-.23,5.47-44.65,33.89-89.48,67.55-134.22,101.31-11.05,8.34-21.88,16.95-33.65,26.09,11.97,10.71,22.97,21.53,35.3,30.52,1.82,1.33,10.26-5.63,15.13-9.4,26.39-20.42,52.67-40.99,78.89-61.63,20.78-16.36,41.4-32.92,62.15-49.31,4.88-3.85,9.67-8.15,15.21-10.65,2.06-.93,6.58,2.2,9.28,4.35,12.8,10.16,25.53,20.44,37.81,31.21,1.48,1.3,1.41,7.39-.08,8.6-33.75,27.21-67.71,54.14-101.81,80.91-21.01,16.49-42.3,32.61-64.23,49.49,12.1,10.79,23.26,21.39,35.39,30.74,1.51,1.16,8.56-3.83,12.36-6.84,16.17-12.84,32.12-25.95,48.06-39.06,18.47-15.19,36.72-30.65,55.3-45.69,16.19-13.1,33.03-25.42,48.89-38.9,4.22-3.59,8.25-10.13,8.36-15.4.73-35.48.31-70.98.6-106.48.01-1.71,3.2-4.84,4.95-4.87,21.16-.34,42.33-.36,63.48.04,1.94.04,5.47,3.56,5.48,5.48.28,80.49.17,160.98.54,241.47.01,2.37,4.61,6.77,7.09,6.79,41.13.21,82.26-.2,123.39-.13,1.57,0,4.45,3.45,4.49,5.33.34,18.66.32,37.33,0,55.99-.02,1.43-3.03,4.03-4.66,4.04-65.33.21-130.65.22-195.98-.03-1.61,0-4.58-3.15-4.6-4.85-.27-35.49-.21-70.99-.21-106.49,0-2.27,0-4.54,0-8.08-14.49,10.99-28.01,21.1-41.37,31.41-25.44,19.64-50.8,39.39-76.18,59.11-18.82,14.63-37.83,29.04-56.34,44.05-10.92,8.85-15.42-2.56-21.28-6.63-16.99-11.8-33.18-24.76-49.52-37.47-24.58-19.12-48.99-38.46-73.55-57.61-13.32-10.39-26.77-20.62-40.31-30.72-.67-.5-3.91.71-4.11,1.57-6.54,27.23-18.7,52.48-39.6,70.27-18.2,15.49-40.22,27.73-62.42,36.88-16.29,6.71-35.56,7.89-53.58,8.4-40.63,1.15-81.31.43-121.97.13-1.86-.01-5.31-3.38-5.32-5.19-.26-102.65-.26-205.31.02-307.96,0-2,3.74-5.73,5.76-5.74,44.83-.34,89.7-1.45,134.47.11,35.04,1.23,66.48,13.73,93.04,37.91,20.61,18.77,36.1,40.62,45.91,66.59,1.52,4.02,2.62,8.21,4.49,14.16Zm-214.01,42.58c0,30.81-.06,61.62.16,92.43.01,1.8,2.38,5.17,3.58,5.13,23.25-.67,46.61-.63,69.72-2.96,37.12-3.74,63.96-45.38,69.34-76.47,4.24-24.55-.88-47.4-12.78-69.17-14.14-25.87-35.81-41.45-64.58-44.97-19.65-2.4-39.76-1.22-59.66-1.11-1.93.01-5.49,3.69-5.51,5.69-.36,30.47-.25,60.95-.25,91.43Z"/>
  <path class="cls-1" d="m1092.71,727.8c0-51.15-.06-102.31.23-153.46.01-1.95,3.43-5.53,5.31-5.56,21.32-.4,42.65-.4,63.97,0,1.93.04,5.44,3.57,5.45,5.49.28,80.64.2,161.29.49,241.93,0,1.99,3.78,5.68,5.82,5.7,39.32.34,78.64.14,117.96.53,2.26.02,6.35,4.03,6.42,6.27.53,17.98.44,35.99.05,53.97-.04,1.78-3.29,5.01-5.07,5.01-65.32.26-130.63.26-195.95,0-1.57,0-4.5-3.21-4.51-4.94-.24-51.65-.2-103.31-.19-154.96Z"/>
</svg>