<?xml version="1.0" encoding="utf-8"?>
<!-- Generator: Adobe Illustrator 27.2.0, SVG Export Plug-In . SVG Version: 6.00 Build 0)  -->
<svg version="1.1" id="Слой_1" xmlns="http://www.w3.org/2000/svg" xmlns:xlink="http://www.w3.org/1999/xlink" x="0px" y="0px"
	 viewBox="0 0 21 23" style="enable-background:new 0 0 21 23;" xml:space="preserve">
<style type="text/css">
	.st0{fill:#292D32;}
</style>
<g>
	<path class="st0" d="M20.2,22.6c-0.4,0-0.8-0.3-0.8-0.8v-2.2c0-1-0.4-1.9-1.1-2.6c-0.7-0.7-1.7-1.1-2.8-1.1H6.3c-1,0-2,0.4-2.8,1.1
		c-0.7,0.7-1.1,1.6-1.1,2.6v2.2c0,0.4-0.3,0.8-0.8,0.8s-0.8-0.3-0.8-0.8v-2.2c0-1.4,0.6-2.7,1.6-3.7c1-1,2.4-1.5,3.8-1.5h9.3
		c1.4,0,2.8,0.5,3.8,1.5c1,1,1.6,2.3,1.6,3.7v2.2C21,22.3,20.6,22.6,20.2,22.6z"/>
	<path class="st0" d="M10.9,11.4c-3,0-5.4-2.3-5.4-5.2C5.5,3.3,8,1,10.9,1s5.4,2.3,5.4,5.2C16.3,9.1,13.9,11.4,10.9,11.4z M10.9,2.5
		C8.8,2.5,7,4.1,7,6.2s1.7,3.7,3.9,3.7s3.9-1.7,3.9-3.7S13.1,2.5,10.9,2.5z"/>
</g>
</svg>
